# xmcd CD database file
#
# Track frame offsets:
#	150
#	14927
#	34204
#	50931
#	61283
#
# Disc length: 1055 seconds
#
# Revision: 2
# Processed by: cddbd v1.5.1PL2 Copyright (c) Steve Scherf et al.
# Submitted via: CDex 1.51
#
DISCID=4a041d05
DTITLE=Gitarama's - [Not for Sale] (single)
DYEAR=1995
DGENRE=Blues
TTITLE0=You wreck me
TTITLE1=Georgia Rae
TTITLE2=Cold shot
TTITLE3=Come on
TTITLE4=Heroes
EXTD=Een wereldband uit Alphen a/d Rijn YEAR: 1995
EXTT0=
EXTT1=
EXTT2=
EXTT3=
EXTT4=
PLAYORDER=
